<?xml version="1.0" encoding="UTF-8" standalone="no"?>
<!-- Created with Inkscape (http://www.inkscape.org/) -->

<svg
   version="1.1"
   id="svg2"
   width="313.94666"
   height="632.28003"
   viewBox="0 0 313.94666 632.28003"
   sodipodi:docname="clucth-coat-Full.eps"
   xmlns:inkscape="http://www.inkscape.org/namespaces/inkscape"
   xmlns:sodipodi="http://sodipodi.sourceforge.net/DTD/sodipodi-0.dtd"
   xmlns="http://www.w3.org/2000/svg"
   xmlns:svg="http://www.w3.org/2000/svg">
  <defs
     id="defs6" />
  <sodipodi:namedview
     id="namedview4"
     pagecolor="#ffffff"
     bordercolor="#000000"
     borderopacity="0.25"
     inkscape:showpageshadow="2"
     inkscape:pageopacity="0.0"
     inkscape:pagecheckerboard="0"
     inkscape:deskcolor="#d1d1d1" />
  <g
     id="g8"
     inkscape:groupmode="layer"
     inkscape:label="ink_ext_XXXXXX"
     transform="matrix(1.3333333,0,0,-1.3333333,0,632.28)">
    <g
       id="g10"
       transform="scale(0.1)">
      <path
         d="M 1422.64,3042.55 557.922,4054.73 c 0,0 72.473,224.93 107.465,267.41 34.984,42.49 139.949,142.45 167.441,152.45 27.492,10 79.977,19.99 79.977,19.99 z"
         style="fill:none;stroke:#231f20;stroke-width:10;stroke-linecap:butt;stroke-linejoin:miter;stroke-miterlimit:10;stroke-dasharray:none;stroke-opacity:1"
         id="path12" />
      <path
         d="M 208.961,5 H 1447.03 l -34.52,3042.3 -850.369,989.68 c 0,0 31.047,135.84 38.812,166.88 7.758,31.05 50.453,93.15 50.453,93.15 0,0 -116.433,3.88 -131.957,34.93 -15.523,31.05 46.571,194.06 46.571,194.06 0,0 -213.457,-69.87 -240.625,-93.15 -27.168,-23.29 -65.981,-174.65 -65.981,-174.65 0,0 217.344,-671.43 205.699,-857.72 -11.64,-186.29 -97.027,-1307.93 -97.027,-1307.93 z"
         style="fill:none;stroke:#231f20;stroke-width:10;stroke-linecap:butt;stroke-linejoin:miter;stroke-miterlimit:10;stroke-dasharray:none;stroke-opacity:1"
         id="path14" />
      <path
         d="m 2184.78,46.2422 h -739.37 l -34.38,3031.8578 -128.63,408.97 451.18,512.64 c 0,0 -40.75,152.65 -49.48,184.33 -8.73,31.67 -34.93,60.47 -34.93,60.47 0,0 131,-14.4 131,31.68 0,46.09 -110.62,270.72 -110.62,270.72 0,0 235.78,-175.68 259.06,-192.95 23.29,-17.28 84.43,-95.05 84.43,-95.05 l -40.75,-259.2 c 0,0 -78.61,-172.8 -75.69,-544.32 2.91,-371.53 110.61,-1442.9 110.61,-1442.9 z"
         style="fill:none;stroke:#231f20;stroke-width:10;stroke-linecap:butt;stroke-linejoin:miter;stroke-miterlimit:10;stroke-dasharray:none;stroke-opacity:1"
         id="path16" />
      <path
         d="m 2022.18,4235.7 308.86,-1218.64 18.52,-1132.11 h -341.91 c 0,0 -109.02,1186.19 -109.02,1258.3 0,72.11 -14.53,483.13 36.34,710.28 50.87,227.14 87.21,382.17 87.21,382.17 z"
         style="fill:none;stroke:#231f20;stroke-width:10;stroke-linecap:butt;stroke-linejoin:miter;stroke-miterlimit:10;stroke-dasharray:none;stroke-opacity:1"
         id="path18" />
      <path
         d="m 5,1949.92 h 352.211 l 107.902,1450.56 c 0,0 -1.504,97.86 -25.55,204.52 -24.055,106.66 -180.149,653.2 -180.149,653.2 L 5,3240.51 Z"
         style="fill:none;stroke:#231f20;stroke-width:10;stroke-linecap:butt;stroke-linejoin:miter;stroke-miterlimit:10;stroke-dasharray:none;stroke-opacity:1"
         id="path20" />
      <path
         d="m 1163.23,3781.36 c 0,0 148.12,371.12 178.08,494.87 29.96,123.75 50.81,194.1 50.81,194.1 0,0 170.64,-131.56 205.82,-168.04 35.18,-36.47 73.16,-83.43 79.67,-100.84 6.49,-17.41 55.97,-194.86 55.97,-194.86 l -463.06,-530.8 z"
         style="fill:none;stroke:#231f20;stroke-width:10;stroke-linecap:butt;stroke-linejoin:miter;stroke-miterlimit:10;stroke-dasharray:none;stroke-opacity:1"
         id="path22" />
      <path
         d="m 1392.12,4470.33 c 0,0 -13.15,45.23 -21.15,69.25 -8.01,24.03 -15.13,54.28 -15.13,54.28 0,0 9.79,23.13 9.79,56.05 0,32.92 -4.45,61.39 -4.45,61.39 l 160.15,-76.51 148.22,-87.88 104.24,-240.44 c 0,0 16.74,-44.34 -9.45,-52.49 -26.19,-8.15 -50.9,-12.67 -77.51,-11.54 -26.62,1.13 -37.66,2.07 -37.66,2.07 0,0 -49.7,59.43 -92.12,94.31 -42.43,34.88 -164.93,131.51 -164.93,131.51 z"
         style="fill:none;stroke:#231f20;stroke-width:10;stroke-linecap:butt;stroke-linejoin:miter;stroke-miterlimit:10;stroke-dasharray:none;stroke-opacity:1"
         id="path24" />
      <path
         d="m 566.02,4526 c 0,0 30.796,79.38 32.011,90.31 1.215,10.94 319.66,98.83 334.242,94.99 14.586,-3.83 -19.468,-216.72 -19.468,-216.72 0,0 -63.871,-10.6 -79.977,-19.99 -16.105,-9.39 -74.586,-56.34 -106.082,-87.94 -31.492,-31.59 -75.34,-89.64 -75.34,-89.64 0,0 -58.324,-4.65 -93.484,12.81 -35.168,17.47 -51.59,18.24 -35.106,78.38 16.485,60.13 43.204,137.8 43.204,137.8 z"
         style="fill:none;stroke:#231f20;stroke-width:10;stroke-linecap:butt;stroke-linejoin:miter;stroke-miterlimit:10;stroke-dasharray:none;stroke-opacity:1"
         id="path26" />
      <path
         d="m 932.273,4711.3 c 0,0 59.512,23.15 185.217,25.61 125.7,2.46 243.69,-25.61 243.69,-25.61 0,0 5.51,-42.62 4.45,-61.39 -1.07,-18.77 -9.79,-56.05 -9.79,-56.05 l 36.28,-123.53 -67.86,-253.4 -86.75,-243.87 -74.28,-191.7 -250.425,713.22 c 0,0 16.785,114.07 19.437,143.78 2.653,29.7 0.031,72.94 0.031,72.94 z"
         style="fill:none;stroke:#231f20;stroke-width:10;stroke-linecap:butt;stroke-linejoin:miter;stroke-miterlimit:10;stroke-dasharray:none;stroke-opacity:1"
         id="path28" />
    </g>
  </g>
</svg>
