<svg xmlns="http://www.w3.org/2000/svg" xml:space="preserve" width="500" height="500" version="1.0" shape-rendering="geometricPrecision" text-rendering="geometricPrecision" image-rendering="optimizeQuality" fill-rule="evenodd" clip-rule="evenodd" viewBox="0 0 773.24 1557.22">
  <g fill-rule="nonzero" stroke="#000" stroke-width="4">
    <path fill="#FFA500" id="dalam" d="M306.15 10.1s19.54-7.61 60.82-8.41C408.25.88 447 10.1 447 10.1s1.81 13.99 1.46 20.15c-.36 6.17-3.22 18.41-3.22 18.41l11.92 40.57-22.28 83.21-28.5 80.08-24.39 62.95-82.24-234.21s5.52-37.45 6.39-47.21c.87-9.75.01-23.95.01-23.95z"/>
    <path fill="#FFFF00" id="kerah-belakang-kiri" d="M457.15 89.23s-4.31-14.86-6.94-22.75c-2.63-7.88-4.97-17.82-4.97-17.82s3.22-7.6 3.22-18.4c0-10.81-1.46-20.16-1.46-20.16l52.59 25.12 48.67 28.86 34.23 78.96s5.5 14.56-3.1 17.23c-8.6 2.68-16.72 4.16-25.45 3.79-8.74-.37-12.37-.68-12.37-.68s-16.32-19.51-30.25-30.96c-13.93-11.46-54.16-43.19-54.16-43.19z"/>
    <path fill="#FFFF00" id="kerah-belakang-kanan" d="M185.88 70.94s10.11-26.06 10.51-29.66c.4-3.58 104.97-32.45 109.76-31.18 4.79 1.25-6.4 71.16-6.4 71.16s-20.97 3.48-26.26 6.56c-5.29 3.09-24.49 18.51-34.83 28.88-10.34 10.38-24.74 29.44-24.74 29.44s-19.16 1.53-30.7-4.2c-11.55-5.74-16.94-5.99-11.53-25.74s14.19-45.26 14.19-45.26z"/>
    <path fill="#008000" id="lengan-kiri" d="m664.06 166.28 101.43 400.18 6.08 371.77H659.29s-35.8-389.53-35.8-413.21-4.77-158.65 11.93-233.25c16.71-74.59 28.64-125.49 28.64-125.49z"/>
    <path fill="#008000" id="lengan-kanan" d="M1.64 916.89h115.67l35.43-476.34s-.5-32.13-8.39-67.16c-7.9-35.03-59.16-214.5-59.16-214.5L1.64 493.08z"/>
    <path fill="#0000FF" id="kerah-depan-kiri" d="M381.99 315.47s48.64-121.87 58.48-162.51c9.84-40.63 16.68-63.73 16.68-63.73s56.04 43.2 67.59 55.18c11.56 11.97 24.03 27.39 26.17 33.11 2.13 5.72 18.38 63.99 18.38 63.99L417.22 415.82z"/>
    <path fill="#800080" id="depan-kiri" d="M717.46 1540.85h-242.8l-11.29-995.61-42.24-134.3 148.16-168.35s-13.38-50.12-16.25-60.53c-2.87-10.4-11.47-19.85-11.47-19.85s43.02 4.73 43.02-10.41c0-15.13-36.33-88.9-36.33-88.9s77.43 57.69 85.07 63.36c7.65 5.68 27.73 31.21 27.73 31.21l-13.38 85.12s-25.82 56.75-24.86 178.75c.95 122.01 36.32 473.83 36.32 473.83z"/>
    <path fill="#008000" id="depan-kanan" d="M68.63 1555.58h406.55l-11.32-999.05-279.26-325s10.2-44.61 12.75-54.8c2.54-10.19 16.57-30.59 16.57-30.59s-38.24-1.27-43.34-11.47c-5.09-10.2 15.3-63.73 15.3-63.73s-70.1 22.95-79.03 30.59c-8.91 7.65-21.66 57.36-21.66 57.36s71.37 220.48 67.55 281.66c-3.82 61.17-31.86 429.5-31.86 429.5z"/>
    <path fill="#FFFF00" id="kerah-depan-kanan" d="M467.18 558.09 183.22 225.71s23.8-73.87 35.29-87.82c11.48-13.95 45.95-46.78 54.98-50.07 9.04-3.28 26.26-6.56 26.26-6.56z"/>
  </g>
</svg>
